<svg id="Layer_1" data-name="Layer 1" xmlns="http://www.w3.org/2000/svg" width="23.9999" height="24" viewBox="0 0 23.9999 24"><defs><style>.cls-1{fill:#e70000;fill-rule:evenodd;}</style></defs><title>icon-search</title><path class="cls-1" d="M16.5981,8.4A8.3273,8.3273,0,0,0,8.2409,0,8.1983,8.1983,0,0,0,.0031,8.28,8.3273,8.3273,0,0,0,8.36,16.68a11.0809,11.0809,0,0,0,4.7754-1.44L21.8513,24,24,21.84l-8.7153-8.76A10.1514,10.1514,0,0,0,16.5981,8.4ZM14,8.5A5.5012,5.5012,0,0,1,8.5,14,5.5766,5.5766,0,0,1,3,8.5a5.5,5.5,0,0,1,11,0Z" transform="translate(-0.0003)"/></svg>