<svg id="Layer_2" data-name="Layer 2" xmlns="http://www.w3.org/2000/svg" viewBox="0 0 689.6152 635.0364"><defs><style>.cls-1,.cls-3{fill:none;}.cls-1,.cls-2,.cls-3{stroke:#231f20;stroke-miterlimit:10;}.cls-1{stroke-width:6px;}.cls-2{fill:#231f20;}</style></defs><title>Logo Detail</title><path class="cls-1" d="M308.2348,190.4011s-67.1042,21.0381-76.8978,48.2425l-105.19-37.3608,64.2024,86.3287s-33.008,68.1924-27.2044,101.9259c0,0-102.2886,36.6352-101.2,39.537s111.7194,22.8517,112.4449,18.8618,21.038,53.6833,56.2224,85.6032c0,0-43.527,106.2785-39.1743,102.2886,0,0,77.9859-46.4289,87.78-62.7516,0,0,68.5551,41.7135,124.0521,38.4489,0,0,53.3207,104.8277,53.6834,99.75s14.1463-77.6233,18.499-105.19c0,0,45.7034-3.99,75.0842-30.469,0,0,60.9379,38.0862,89.9559,47.5171,0,0-48.9679-94.3087-52.5952-96.8477,0,0,37.3607-59.3083,33.7335-75.3576,0,0,90.3186-9.1575,116.4349-10.2456,0,0-97.21-55.86-105.19-51.87,0,0-2.6741-63.0512-38.7307-105.4335,0,0,36.3729-54.7174,70.5317-105.9557,0,0-115.1279,63.2571-112.9139,64.5223,0,0,6.642-5.6932-50.6058-33.8426,0,0,10.7538-89.5088,6.3258-119.556,0,0-41.75,74.3272-60.4106,96.4672,0,0-59.1454-10.1212-84.4483-6.3258,0,0-43.9637-86.6622-48.0754-88.56Z" transform="translate(-58.9355 -79.4172)"/><path class="cls-2" d="M185.7374,451.0368s-2.72-53.0327,33.0888-81.5888c0,0,6.3458,23.57,2.72,23.1168l13.5981-9.972A101.1905,101.1905,0,0,1,239.2235,400s11.785-7.8885,12.6916-8.795,7.2523,15.8645,5.8925,15.8645,11.785-11.3318,11.785-11.3318,12.6916,19.4907,10.4253,19.9439,4.986,2.2664,21.757-13.1448c0,0,15.4112,41.2477-14.0514,92.9206,0,0,6.3458-37.1682-5.8925-53.9393,0,0-9.5187,21.757-16.3178,22.21,0,0,3.6262-29.0094-1.8131-24.93,0,0-15.0561,18.1308-17.9533,17.6776,0,0,4.3552-31.2758,2.5421-31.729S227.4384,451.49,225.172,450.13s5.4393-28.1029.9066-28.1029-15.8645,25.8365-15.8645,25.8365-1.8131-8.1589,1.36-33.5421C211.5739,414.3218,181.2047,449.2237,185.7374,451.0368Z" transform="translate(-58.9355 -79.4172)"/><path class="cls-2" d="M340.2014,388.5874s-35.7245,61.4894-28.3631,108.6891c0,0,3.8405-8.2155,23.2059-38.848,0,0,10.5629,23.2385,9.5066,58.4483,0,0,19.7176-34.1535,21.1259-29.9283,0,0,2.4647,13.7318,2.4647,41.1955,0,0,26.76-32.7452,33.8015-39.4351,0,0,5.2815,4.5773-4.2252,42.604,0,0,28.52-32.7452,28.52-37.6746,0,0,4.5773,5.2815-1.4084,37.6746,0,0,53.5189-71.476,55.9836-123.5866,0,0-34.1535,59.5046-35.5619,55.9837,0,0-.3521-25.3511-2.1126-27.1116s-13.0276,31.6888-15.8444,29.9283c0,0,.7042-22.8863-.7042-24.6468s-22.0718,27.8157-34.9786,35.5619c0,0-2.696,5.2815-10.7942-40.1392,0,0-8.45,22.8864-11.2672,21.1259,0,0-7.0419-7.3941-7.394-30.28,0,0-4.2252,13.7319-8.0983,16.1965,0,0-5.2815-29.2241-3.1689-30.28,0,0-10.2108,18.6612-11.2671,16.5486Z" transform="translate(-58.9355 -79.4172)"/><path class="cls-2" d="M463.97,566.7577s14.7784-90.5358,50.4521-113.3062c0,0,6.8311,14.4213,6.0721,14.4213s16.9136-20.5,15.8533-22.621,11.31,17.3192,8.8363,18.0261,16.9657-21.9141,19.0864-21.9141c0,0,13.7846,28.9831,9.5432,28.63,0,0,14.4916-14.1381,17.3192-13.7847,0,0,4.5949,54.7852-27.9227,90.4838,0,0,9.5432-39.94,6.0086-51.604,0,0-8.4828,13.7846-10.6035,15.9054,0,0-1.4138-11.3105-2.8276-15.9054,0,0-14.845,37.1125-22.621,51.2506,0,0,1.4138-38.6081-3.1811-42.2784,0,0-22.2675,47.58-23.6813,51.1147,0,0,3.5346-40.647-3.8879-44.8885C502.416,510.287,464.4037,563.1414,463.97,566.7577Z" transform="translate(-58.9355 -79.4172)"/><path class="cls-2" d="M283.8817,299.3669s-4.5049,6.0064-45.0483,18.77c0,0,21.3979-.7508,26.6536-3.0032,0,0-10.1359,12.3882-14.2653,14.2652,0,0-9.76-2.2524-25.9027,7.8835v7.8834s-15.3915,7.1326-21.7733,27.0289A96.3984,96.3984,0,0,0,221.19,357.1787s8.2588,3.7541,9.76,4.88l1.5016,1.1262S245.1136,376.7,245.54,375.198l.4263-1.5016s-15.3915-22.1487-15.7669-23.65l-.7508-9.76s17.6439-9.3851,21.0225-6.7573C250.4709,333.5284,279.3768,316.6354,283.8817,299.3669Z" transform="translate(-58.9355 -79.4172)"/><path class="cls-2" d="M274.4491,381.3005s-9.0408,2.48-10.8736-10.1323c0,0,4.9425-.7414-.9886-8.4023S284.8285,372.4039,274.4491,381.3005Z" transform="translate(-58.9355 -79.4172)"/><path class="cls-2" d="M286.5584,378.335s2.4713,5.19,12.6036-13.8392c0,0,12.3564,5.4368,15.0749,33.8566,0,0,3.954-9.3711,1.4827-27.1743,0,0-9.638-17.8031-12.1093-16.32,0,0-10.6265,12.8507-11.8622,11.368C291.7481,366.2257,294.9608,370.9211,286.5584,378.335Z" transform="translate(-58.9355 -79.4172)"/><path class="cls-2" d="M366.8753,325.6965s-5.19,19.2761-17.0519,16.31c0,0,9.8851,23.4773,12.3564,20.0175,0,0,14.3335,10.152,12.3565,9.1536C374.5363,371.1781,381.95,342.2542,366.8753,325.6965Z" transform="translate(-58.9355 -79.4172)"/><path class="cls-2" d="M447.6262,351.8106a93.4346,93.4346,0,0,0-28.0595,32.6879s9.8353,5.8209,33.8449-7.9373C453.4116,376.5612,445.0227,372.06,447.6262,351.8106Z" transform="translate(-58.9355 -79.4172)"/><path class="cls-2" d="M467.586,345.7359s13.8851,18.8027,0,21.6955c0,0-4.05,8.1,30.6629-10.8478,0,0-4.6284-1.0124,25.7453-12.0048C523.9942,344.5788,501.6931,326.9336,467.586,345.7359Z" transform="translate(-58.9355 -79.4172)"/><path class="cls-2" d="M578.6667,349.7857s-8.6782,3.182-7.5211,17.0671c0,0-23.4311-16.1992-17.6456-23.72C553.5,343.1325,582.9509,346.3414,578.6667,349.7857Z" transform="translate(-58.9355 -79.4172)"/><path class="cls-2" d="M609.33,406.1939s0-13.8851-20.2491-22.5633c0,0,13.0173,2.6035,13.5958-19.092C602.6763,364.5386,629.5787,384.4985,609.33,406.1939Z" transform="translate(-58.9355 -79.4172)"/><path class="cls-2" d="M338.4919,329.6156s-7.46-17.2938,9.1556-20.6847c0,0-3.73-22.7193-39.674-14.92C307.9735,294.0107,342.5611,347.5876,338.4919,329.6156Z" transform="translate(-58.9355 -79.4172)"/><path class="cls-2" d="M234.1989,269.7171s-17.37,17.1316-3.0209,22.6635c0,0-22.2861,1.14-27.6323,6.9863C203.5457,299.3669,202.2274,268.71,234.1989,269.7171Z" transform="translate(-58.9355 -79.4172)"/><path class="cls-2" d="M251.821,269.6928s11.9,22.3943-6.2812,22.6878c0,0,.9946,11.5738,44.0429-6.5518C289.5827,285.8288,281.7786,270.9273,251.821,269.6928Z" transform="translate(-58.9355 -79.4172)"/><path class="cls-2" d="M461.0505,417.784s-16.1084-18.41-19.4556-24.6856c0,0-7.1127-.2092-7.74,4.6024C433.8546,397.7008,460.4229,426.1519,461.0505,417.784Z" transform="translate(-58.9355 -79.4172)"/><path class="cls-3" d="M492.2212,400" transform="translate(-58.9355 -79.4172)"/><path class="cls-2" d="M552.5813,422.3864a24.63,24.63,0,0,0-11.4074,0s3.7656,7.5311-1.6736,8.9955c0,0-7.74,2.72-9.2047-1.046,0,0-2.72-5.9146,7.9495-11.0115C538.2451,419.3244,544.533,415.9012,552.5813,422.3864Z" transform="translate(-58.9355 -79.4172)"/><path class="cls-2" d="M520.7749,402.1984s-9.5207,18.2188,0,23.1782c0,0-7.8248-10.82-31.6548,34.5735C489.12,459.95,478.8056,449.1471,520.7749,402.1984Z" transform="translate(-58.9355 -79.4172)"/><path class="cls-2" d="M602.9792,458.3946s.6672-20.9045-18.5391-39.973c0,0,0-11.4579-3.5567-13.4849,0,0-2.8454,2.3486-6.4021,14.3877,0,0-5.3351,3.503-15.6495,14.5288C558.8318,433.8532,587.0181,416.781,602.9792,458.3946Z" transform="translate(-58.9355 -79.4172)"/><path class="cls-2" d="M520.7749,358.0951S523.392,382.216,492.2212,400C492.2212,400,501.9242,387.6159,520.7749,358.0951Z" transform="translate(-58.9355 -79.4172)"/><path class="cls-2" d="M622.1414,368.766s-3.9124-34.1452-25.9641-44.8154c0,0-5.3351,2.134,0,9.6031C596.1773,333.5537,626.7651,372.3234,622.1414,368.766Z" transform="translate(-58.9355 -79.4172)"/><path class="cls-2" d="M305.8035,314.6163s-4.804,2.1145,13.17,38.326c0,0,1.6082,6.9576-17.4278-21.41C301.5453,331.5326,299.5061,311.7088,305.8035,314.6163Z" transform="translate(-58.9355 -79.4172)"/><path class="cls-2" d="M571.6957,392.1956s-2.5274-15.761-23.4362-25.3428c0,0-2.0679,16.1173,27.1125,39.3411l1.9937,4.8742,3.5177-6.1314A42.7516,42.7516,0,0,1,556.3013,377.95S570.0873,388.9788,571.6957,392.1956Z" transform="translate(-58.9355 -79.4172)"/><path class="cls-2" d="M379.9992,393.0971A135.0233,135.0233,0,0,1,367.59,408.0043s-1.5239,2.3948,0,4.3542c0,0,27.4312,17.4166,26.9958,22.4239a64.3884,64.3884,0,0,1,25.9072-11.5385s-5.225-10.6677-5.8781-12.1917c0,0,.2177-13.4978,5.8781-20.2468,0,0,6.0958,4.79,12.1916,19.376,0,0-1.3062,14.8027-2.83,9.143,0,0-.8708-1.3788-6.3135-17.126,0,0-4.6823,5.37-3.974,7.7653,0,0,5.7156,11.9739,6.8042,14.5864,0,0-26.4743,9.68-30.5449,16.8137,0,0-11.255-16.3783-34.55-28.1345,0,0,0-5.2643,2.83-8.2926,0,0,11.1031-10.8657,8.0552-14.1313a110.167,110.167,0,0,0-16.9812,15.4054,9.6945,9.6945,0,0,1,0-6.2108s6.0958-11.8071,23.9478-18.1206C379.1283,381.8794,382.3939,392.3408,379.9992,393.0971Z" transform="translate(-58.9355 -79.4172)"/><path class="cls-2" d="M391.6112,318.4318s1.4579,10.958-5.6446,12.3785c0,0-5.2761-.4058-5.6819-10.1463s-28.6128-57.2255-37.5416-66.56,24.3513,19.684,28.41,29.83c0,0,2.841,3.45,2.4352-8.9288,0,0,6.1511.4059,2.7711,21.3074,0,0,10.0133,18.2634,10.4191,23.1337S388.327,319.2435,391.6112,318.4318Z" transform="translate(-58.9355 -79.4172)"/><path class="cls-2" d="M390.0252,311.1264s2.9228-29.2117-4.87-26.9893c0,0,1.6234,10.7551,1.4205,14.6107C386.5754,298.7478,387.793,314.5761,390.0252,311.1264Z" transform="translate(-58.9355 -79.4172)"/><path class="cls-2" d="M222.0105,263.2194s31.9456-18.3365,46.4142-22.2043c0,0,4.0111-2.2921-2.4353-3.2949C265.9894,237.72,208.4014,252.0456,222.0105,263.2194Z" transform="translate(-58.9355 -79.4172)"/><path class="cls-2" d="M147.0118,215.985s40.9972,28.9528,35.9015,30.3425S138.8733,220.3858,147.0118,215.985Z" transform="translate(-58.9355 -79.4172)"/><path class="cls-2" d="M183.3518,252.1181l6.51-4.4008S211.1713,262.74,210.94,263.2194s-6.6811,8.1234-7.3939,7.8918S205.14,269.7214,183.3518,252.1181Z" transform="translate(-58.9355 -79.4172)"/><path class="cls-2" d="M447.4525,315.79s27.6694-12.5424,27.4235-19.92S436.4858,321.3612,447.4525,315.79Z" transform="translate(-58.9355 -79.4172)"/><path class="cls-2" d="M503.1578,307.674S463.0714,303.0393,441.43,330.81c0,0-.4918-6.659-1.4756-6.4131s-11.8046,18.6906-14.51,15.4935-1.7215.3491-2.7052-6.5885-3.1723,6.9607-3.1723,6.9607,1.4508,6.5138,10.0583,10.4487C429.625,350.7116,454.71,319.4786,503.1578,307.674Z" transform="translate(-58.9355 -79.4172)"/><path class="cls-2" d="M641.6546,199.1735s-21.4341,18.9845-17.4535,23.7307c0,0,17.4535-17.6066,17.4535-20.6687C641.6546,202.2355,644.5635,200.7045,641.6546,199.1735Z" transform="translate(-58.9355 -79.4172)"/><path class="cls-2" d="M609.6565,215.7084s-44.7055,37.2036-46.5427,32.3043c0,0-6.0728-3.6772,30.6924-26.0994C593.8062,221.9133,601.4475,215.4828,609.6565,215.7084Z" transform="translate(-58.9355 -79.4172)"/><path class="cls-2" d="M695.2229,433.8843s-50.2394,11.0247-67.49,7.48c0,0,2.7238,3.7185,3.0265-18.6774C630.7591,422.6864,664.7439,434.0966,695.2229,433.8843Z" transform="translate(-58.9355 -79.4172)"/><path class="cls-2" d="M316.0937,194.325s3.3852,15.37,11.7168,10.3583c0,0-14.724,7.6852,52.7719-14.7021C380.5824,189.9812,379.9141,178.9546,316.0937,194.325Z" transform="translate(-58.9355 -79.4172)"/><path class="cls-2" d="M321.44,118.1414s3.3414,31.0749,3.0073,40.0967h-8.3535S318.0985,120.8145,321.44,118.1414Z" transform="translate(-58.9355 -79.4172)"/><path class="cls-2" d="M316.0937,187.9764l8.377-3.3414a144.0452,144.0452,0,0,0-1.36-21.3849s-6.3486.6683-8.6876,3.6756C314.423,166.9257,312.9281,182.38,316.0937,187.9764Z" transform="translate(-58.9355 -79.4172)"/><path class="cls-2" d="M363.0913,371.1781s4.0763.9959,3.39,7.5814c0,0-3.8222,5.4566-27.6553,6.9618C338.8261,385.7213,360.52,368.9674,363.0913,371.1781Z" transform="translate(-58.9355 -79.4172)"/><path class="cls-2" d="M254.947,557.9973s11.0691,1.73,16.2578,14.1823c0,0-60.88,48.0815-61.9179,44.9683C209.2869,617.1479,220.356,602.62,254.947,557.9973Z" transform="translate(-58.9355 -79.4172)"/><path class="cls-2" d="M242.1484,546.5822s7.9559,2.4214,5.5345,5.5346c0,0-28.0187,41.5092-28.3646,40.4715S209.9787,604.3492,242.1484,546.5822Z" transform="translate(-58.9355 -79.4172)"/><path class="cls-2" d="M398.1538,599.8524S366.676,597.431,303.72,563.8777c0,0-12.4527.346-15.5659,7.61C288.1544,571.4878,367.7137,615.0724,398.1538,599.8524Z" transform="translate(-58.9355 -79.4172)"/><path class="cls-2" d="M412.3361,611.6133s20.7546-1.3836,22.1382,2.4214,12.1069,33.8992,10.3773,34.591-10.0314,3.1132-11.415,4.4968Z" transform="translate(-58.9355 -79.4172)"/><path class="cls-2" d="M441.0466,667.9967c.1685-1.2358-1.3836-5.1887,8.9937,0,0,0,5.5345,26.2891,4.4968,24.9055S440.0089,675.6067,441.0466,667.9967Z" transform="translate(-58.9355 -79.4172)"/><path class="cls-2" d="M454.6667,615.4183c1.1034-.7308-1.8592-6.0251-4.2805-4.05s-5.88-.1567-3.805,5.9248C446.5812,617.2928,447.8781,619.9152,454.6667,615.4183Z" transform="translate(-58.9355 -79.4172)"/><path class="cls-2" d="M531.3291,566.7577l6.9182,6.8055s-43.5846,28.0187-52.9242,23.8678C485.3231,597.431,500.1972,593.5054,531.3291,566.7577Z" transform="translate(-58.9355 -79.4172)"/><path class="cls-2" d="M591.3556,591.5505s-24.0518-30.0941-37.1964-23.1759C554.1592,568.3746,554.1813,574.9469,591.3556,591.5505Z" transform="translate(-58.9355 -79.4172)"/><path class="cls-2" d="M598.4357,594.3178s21.7923,6.5723,21.1005,12.1069S592.9011,594.6637,598.4357,594.3178Z" transform="translate(-58.9355 -79.4172)"/><path class="cls-2" d="M418.3084,190.0365s52.38,8.4349,53.6894,6.018-13.17-4.3812-11.8229-4.3812-.29-2.8107,2.6564-3.6969,12.3071,2.5231,12.0463,0-7.79-3.1779-7.79-3.1779.6547-7.2022,2.2916-6.5475,5.238,4.2559,7.53,2.9464-10.9364-5.238-2.0308-11.4581c0,0,4.65.9821,5.3045,0s-.46-2.2916-5.3045-3.9285l2.0308-5.8928s3.2881.9822,3.4446,0-3.43-.6547,0-6.5474c0,0-1.8077-9.8213-28.6524,36.0111C451.7006,189.3817,411.4336,186.7627,418.3084,190.0365Z" transform="translate(-58.9355 -79.4172)"/><path class="cls-2" d="M482.7105,203.286c2.0767,1.1013,6.78,0,6.78,0s3.9322-.9934-6.78-4.1125C482.7105,199.1735,479.8615,201.7751,482.7105,203.286Z" transform="translate(-58.9355 -79.4172)"/><path class="cls-2" d="M170.4375,424.7938s3.646,14.5324,1.3259,14.5324-68.9424-7.3456-66.2907-11.9592S139.9438,426.5026,170.4375,424.7938Z" transform="translate(-58.9355 -79.4172)"/><path class="cls-2" d="M456.033,660.8574s3.5658-50.99,7.9369-53C463.97,607.8574,471.2818,637.9392,456.033,660.8574Z" transform="translate(-58.9355 -79.4172)"/><path class="cls-2" d="M198.7358,471.8663s39.38,44.6118,38.8288,55.0763c0,0,17.0737,2.2031,17.349,10.1891,0,0-3.9059,11.2907-6.7721,6.8846C248.1415,544.0163,192.6774,490.5922,198.7358,471.8663Z" transform="translate(-58.9355 -79.4172)"/></svg>